<svg width="109" height="46" viewBox="0 0 109 46" fill="none" xmlns="http://www.w3.org/2000/svg">
<g clip-path="url(#clip0_7039_7972)">
<path d="M106.266 19.2537C105.648 19.2531 105.015 19.0249 104.656 18.8355C97.3489 14.9769 89.0573 12.696 81.0066 12.696C79.9973 12.696 79.2496 12.7366 78.3093 12.8328C79.8294 15.2798 82.4454 18.8409 84.2371 21.0232C84.7043 21.5901 84.841 21.9318 84.841 22.4779C84.841 23.4289 83.8535 24.3507 82.8042 24.3507C82.1025 24.3507 81.6824 24.0705 81.0343 23.2969C78.8513 20.7 75.5737 16.0976 74.0206 13.4864C66.3794 14.8562 57.8603 19.4323 52.8268 23.4743C52.2512 23.9421 51.8511 24.1339 51.2743 24.1339C50.2043 24.1339 49.274 23.2001 49.274 22.1326C49.274 21.516 49.4985 21.0513 50.2845 20.3864C57.9669 13.9033 69.8992 8.78241 80.0326 8.78241C84.0497 8.78241 87.9248 9.34695 91.6715 10.2771C93.9475 10.8405 97.3218 11.9869 100.196 13.2581C92.6613 8.64202 83.2172 4.42436 77.2458 4.42436C75.7221 4.42436 74.79 4.94171 74.79 5.98178C74.79 6.59412 75.1271 7.41436 75.6302 8.23817C74.4348 8.36064 72.8604 8.60677 71.6691 8.92997C71.0463 7.7734 70.6139 6.53797 70.6139 5.21233C70.6139 2.25937 72.5105 0.442667 76.332 0.442667C84.9877 0.442667 99.5348 8.6229 106.794 14.5987C107.624 15.2833 108.443 16.1317 108.443 17.1263C108.443 18.1108 107.602 19.2531 106.266 19.2537Z" fill="#F47D30"/>
<path d="M12.1978 36.6572C12.1978 36.1309 12.5118 35.8041 12.9955 35.8041C13.4793 35.8041 13.7792 36.1309 13.7792 36.6572V37.545C14.2016 36.6698 15.1349 35.8041 15.9763 35.8041C16.5171 35.8041 16.7793 36.1261 16.7793 36.5533C16.7793 36.9697 16.5548 37.2839 15.8584 37.4786C14.4155 37.8867 13.7827 38.7051 13.7827 40.2757V44.8201C13.7827 45.3464 13.4787 45.6738 12.9955 45.6738C12.5124 45.6738 12.1978 45.3464 12.1978 44.8201V36.6572Z" fill="#323232"/>
<path d="M47.6992 36.6572C47.6992 36.1309 48.012 35.8041 48.4969 35.8041C48.9789 35.8041 49.2817 36.1309 49.2817 36.6572V37.545C49.7018 36.6698 50.6351 35.8041 51.4776 35.8041C52.0185 35.8041 52.2819 36.1261 52.2819 36.5533C52.2819 36.9697 52.055 37.2839 51.3604 37.4786C49.9163 37.8867 49.2847 38.7051 49.2847 40.2757V44.8201C49.2847 45.3464 48.9795 45.6738 48.4975 45.6738C48.0132 45.6738 47.6998 45.3464 47.6998 44.8201V36.6572H47.6992Z" fill="#323232"/>
<path d="M21.2899 35.8041C22.8377 35.8041 23.8317 36.4344 23.8317 37.0001C23.8317 37.3394 23.583 37.6782 23.2065 37.6782C22.6268 37.6782 22.354 37.2044 21.2893 37.2044C19.4917 37.2044 18.569 38.8347 18.569 40.7393C18.569 42.8033 19.6072 44.2747 21.2893 44.2747C22.4606 44.2747 22.7175 43.7836 23.2684 43.7836C23.6272 43.7836 23.8428 44.0292 23.8428 44.4049C23.8428 44.7681 23.5471 45.0645 23.0133 45.3142C22.5472 45.5316 21.9303 45.6738 21.2893 45.6738C18.5955 45.6738 16.9776 43.6223 16.9776 40.7393C16.9782 37.9159 18.6103 35.8041 21.2899 35.8041Z" fill="#323232"/>
<path d="M26.1487 41.3556C26.1788 42.9345 27.1881 44.2739 28.9598 44.2739C30.8216 44.2739 31.2611 43.2171 31.9334 43.2171C32.3099 43.2171 32.5744 43.4758 32.5744 43.8808C32.5744 44.661 30.8758 45.673 28.9739 45.673C27.5504 45.673 26.5965 45.2148 25.8865 44.4836C24.9821 43.5534 24.5585 42.1806 24.5585 40.7391C24.5585 38.1021 26.1694 35.8027 28.8349 35.8027C31.3147 35.8027 32.9215 38.0227 32.9215 40.5019C32.9215 41.0641 32.697 41.355 32.0459 41.355H26.1487V41.3556ZM31.3377 40.1578C31.3377 38.779 30.5635 37.2042 28.8278 37.2042C27.1221 37.2042 26.2088 38.5609 26.1487 40.1578H31.3377Z" fill="#323232"/>
<path d="M36.1666 44.8205C36.1666 45.3463 35.8596 45.673 35.3759 45.673C34.8921 45.673 34.5816 45.3463 34.5816 44.8205V33.391C34.5816 32.8653 34.8921 32.5379 35.3759 32.5379C35.8596 32.5379 36.1666 32.8653 36.1666 33.391V44.8205Z" fill="#323232"/>
<path d="M41.9314 45.6764C39.4114 45.6764 37.7381 43.641 37.7381 40.7395C37.7381 37.8367 39.4114 35.8013 41.9314 35.8013C44.4478 35.8013 46.1246 37.8361 46.1246 40.7395C46.1246 43.641 44.4478 45.6764 41.9314 45.6764ZM41.9314 44.2743C43.4733 44.2743 44.532 42.9092 44.532 40.7401C44.532 38.5685 43.4733 37.2046 41.9314 37.2046C40.3871 37.2046 39.3283 38.5685 39.3283 40.7401C39.3283 42.9086 40.3865 44.2743 41.9314 44.2743Z" fill="#323232"/>
<path d="M63.2707 36.4703C62.3881 39.5469 60.9381 44.6039 60.8197 45.0209C60.6859 45.4809 60.4102 45.6738 59.9783 45.6738C59.5447 45.6738 59.2766 45.5113 59.1346 45.0209C59.0126 44.5878 57.4914 39.2882 56.6199 36.2432C56.4726 35.7408 56.3389 35.147 56.2382 34.644C56.1781 35.1357 56.1003 35.711 56.016 36.2486C55.5635 39.1257 54.8618 43.611 54.6674 44.8769C54.5814 45.4343 54.3015 45.6738 53.8413 45.6738C53.4112 45.6738 53.1349 45.3793 53.1349 44.9121C53.1349 44.7311 53.172 44.4952 53.2233 44.1863C53.2233 44.1863 54.8123 34.4958 54.939 33.7551C55.0745 32.9629 55.4799 32.5394 56.138 32.5394C56.726 32.5394 57.1897 32.8888 57.3765 33.5478C57.4914 33.9576 58.7723 38.5092 59.5859 41.3863C59.7368 41.9174 59.8864 42.5429 60.0025 43.1074C60.1097 42.553 60.2511 41.9568 60.3972 41.4377C61.2086 38.5636 62.5148 33.9582 62.6297 33.5478C62.8159 32.8882 63.2306 32.5394 63.8175 32.5394C64.4355 32.5394 64.8886 32.9498 65.0153 33.7551C65.1325 34.4976 66.7322 44.1863 66.7322 44.1863C66.784 44.4952 66.8182 44.7311 66.8182 44.9121C66.8182 45.3793 66.5431 45.6738 66.113 45.6738C65.6528 45.6738 65.3718 45.4343 65.2881 44.8769C65.0984 43.6463 64.4308 39.3778 63.9783 36.4977C63.8864 35.9099 63.7986 35.2426 63.7285 34.6321C63.6124 35.1649 63.461 35.8191 63.2707 36.4703Z" fill="#323232"/>
<path d="M69.6054 32.975C70.1416 32.975 70.5723 33.4105 70.5723 33.9547C70.5723 34.499 70.1422 34.9345 69.6054 34.9345C69.0687 34.9345 68.6385 34.499 68.6385 33.9547C68.6391 33.4105 69.0692 32.975 69.6054 32.975ZM70.3985 36.6574C70.3985 36.1311 70.0891 35.8043 69.6054 35.8043C69.1217 35.8043 68.8147 36.1311 68.8147 36.6574V44.8203C68.8147 45.3466 69.1217 45.674 69.6054 45.674C70.0891 45.674 70.3985 45.3466 70.3985 44.8203V36.6574Z" fill="#323232"/>
<path d="M73.1539 33.8272C73.1539 33.3008 73.4608 32.9741 73.9434 32.9741C74.4277 32.9741 74.7388 33.3008 74.7388 33.8272V35.9127H75.3833C75.9012 35.9127 76.1705 36.1702 76.1705 36.6057C76.1705 37.0412 75.9012 37.3016 75.3833 37.3016H74.7388V44.82C74.7388 45.3457 74.4283 45.673 73.9434 45.673C73.4614 45.673 73.1539 45.3457 73.1539 44.82V37.3022H72.5782C72.0615 37.3022 71.7922 37.0418 71.7922 36.6063C71.7922 36.1708 72.0615 35.9133 72.5782 35.9133H73.1539V33.8272Z" fill="#323232"/>
<path d="M78.1466 33.8272C78.1466 33.3008 78.456 32.9741 78.9409 32.9741C79.424 32.9741 79.7316 33.3008 79.7316 33.8272V35.9127H80.375C80.8964 35.9127 81.1621 36.1702 81.1621 36.6057C81.1621 37.0412 80.8964 37.3016 80.375 37.3016H79.7316V44.82C79.7316 45.3457 79.4246 45.673 78.9409 45.673C78.4566 45.673 78.1466 45.3457 78.1466 44.82V37.3022H77.5692C77.0513 37.3022 76.7821 37.0418 76.7821 36.6063C76.7821 36.1708 77.0513 35.9133 77.5692 35.9133H78.1466V33.8272Z" fill="#323232"/>
<path d="M10.497 44.2038C10.1652 43.3029 7.072 34.8729 6.59122 33.5718C6.34847 32.9188 5.97905 32.5389 5.36688 32.5389C4.74175 32.5389 4.40945 32.92 4.16552 33.5718C3.94576 34.1566 0.578539 43.3053 0.242701 44.2038C0.0954034 44.5986 0.0388412 44.8107 0.0388412 44.9816C0.0388412 45.3836 0.379393 45.6728 0.791236 45.6728C1.21604 45.6728 1.45997 45.4499 1.59312 45.0742C1.67384 44.849 2.11102 43.6028 2.66898 42.0161H8.06478C8.5921 43.5144 9.01632 44.7181 9.14182 45.0742C9.2626 45.4123 9.48237 45.6728 9.91189 45.6728C10.3237 45.6728 10.7102 45.4183 10.7102 45.0007C10.7108 44.8173 10.6672 44.6721 10.497 44.2038ZM3.16979 40.5972C3.82674 38.7327 4.54496 36.6914 5.02338 35.327C5.15831 34.9464 5.27674 34.5862 5.36747 34.2851C5.46763 34.6095 5.59077 34.9811 5.71038 35.324C6.19116 36.6914 6.9082 38.728 7.56397 40.5972H3.16979Z" fill="#323232"/>
<path d="M94.0976 44.8205C94.0976 45.3463 93.7859 45.673 93.3022 45.673C92.8202 45.673 92.5103 45.3463 92.5103 44.8205V33.391C92.5103 32.8653 92.8196 32.5379 93.3022 32.5379C93.7853 32.5379 94.0976 32.8653 94.0976 33.391V44.8205Z" fill="#323232"/>
<path d="M89.4817 35.8041C88.9986 35.8041 88.6922 36.1309 88.6922 36.6572V37.3783C88.1077 36.4039 87.155 35.8017 85.9807 35.8017C83.5686 35.8017 81.9106 37.8365 81.9106 40.7399C81.9106 43.6409 83.5686 45.6768 85.9807 45.6768C87.1544 45.6768 88.1071 45.074 88.6922 44.0979V44.8213C88.6922 45.3464 88.9986 45.6738 89.4817 45.6738C89.966 45.6738 90.2747 45.3464 90.2747 44.8213V36.6572C90.2742 36.1309 89.966 35.8041 89.4817 35.8041ZM86.1039 44.2765C84.562 44.2765 83.5032 42.909 83.5032 40.7399C83.5032 38.5683 84.562 37.2009 86.1039 37.2009C87.6481 37.2009 88.7057 38.5683 88.7057 40.7399C88.7057 42.9084 87.6481 44.2765 86.1039 44.2765Z" fill="#323232"/>
</g>
<defs>
<clipPath id="clip0_7039_7972">
<rect width="109" height="46" fill="white"/>
</clipPath>
</defs>
</svg>
